<svg width="839" height="559" viewBox="0 0 839 559" fill="none" xmlns="http://www.w3.org/2000/svg">
<path opacity="0.35" d="M766.055 220.151C760.543 131.183 704.618 59.9976 611.4 56.5206C583.839 55.4949 556.747 60.7802 531.001 70.4481C497.648 82.9753 468.773 105.251 434.547 115.727C386.825 130.334 338.185 125.406 289.053 126.583C255.552 127.385 221.553 131.128 190.692 144.191C61.7233 198.725 77.3147 366.33 119.083 473.445C121.108 478.638 123.217 483.803 125.412 488.938H698.004C742.938 406.569 771.565 309.091 766.055 220.151Z" fill="#2F74C4"/>
<path d="M267.067 398.209H198.025V488.941H267.067V398.209Z" fill="#2F74C4"/>
<path d="M386.456 365.424H317.037V488.94H386.456V365.424Z" fill="#2F74C4"/>
<path d="M507.611 325.483H434.934V488.938H507.611V325.483Z" fill="#2F74C4"/>
<path d="M637.321 273.488H561.213V488.941H637.321V273.488Z" fill="#2F74C4"/>
<path d="M201.47 328.133L201.252 314.717C221.133 314.388 275.394 309.253 338.454 292.198C384.666 279.702 428.954 262.828 470.093 242.053C521.437 216.121 567.993 183.995 608.466 146.567L617.595 156.423C576.137 194.759 528.468 227.645 475.91 254.161C433.904 275.355 388.699 292.55 341.547 305.273C261.21 326.945 203.878 328.1 201.47 328.133Z" fill="#2F74C4"/>
<path d="M626.06 178.346L584.529 136.84H626.06V178.346Z" fill="#2F74C4"/>
<path d="M533.415 183.648L517.944 174.128C517.815 173.505 517.664 172.882 517.494 172.259C515.827 166.453 512.02 161.494 506.841 158.381C501.662 155.268 495.495 154.232 489.582 155.482C483.669 156.732 478.45 160.175 474.975 165.117C471.5 170.059 470.029 176.133 470.857 182.117L459.773 195.689C459.743 195.735 459.727 195.788 459.727 195.842C459.726 195.897 459.742 195.95 459.772 195.996C459.801 196.042 459.844 196.078 459.894 196.1C459.944 196.122 459.999 196.129 460.053 196.12L474.38 191.692C476.876 195.602 480.457 198.701 484.685 200.611C488.914 202.521 493.607 203.159 498.193 202.448C502.778 201.737 507.057 199.706 510.508 196.605C513.958 193.504 516.43 189.466 517.622 184.984L533.242 184.291C533.315 184.286 533.385 184.258 533.441 184.212C533.498 184.165 533.539 184.102 533.558 184.031C533.577 183.961 533.573 183.886 533.548 183.817C533.522 183.748 533.476 183.689 533.415 183.648Z" fill="white"/>
<path d="M494.514 203.166C491.526 203.161 488.566 202.603 485.782 201.52C481.052 199.679 477.01 196.418 474.213 192.184L460.19 196.517C460.048 196.56 459.897 196.557 459.757 196.507C459.617 196.458 459.497 196.365 459.415 196.242C459.332 196.119 459.291 195.973 459.298 195.826C459.304 195.678 459.358 195.536 459.452 195.421L470.434 182.005C469.642 175.928 471.178 169.776 474.732 164.781C478.287 159.787 483.599 156.32 489.603 155.075C495.608 153.829 501.861 154.897 507.111 158.064C512.361 161.232 516.219 166.265 517.913 172.155C518.064 172.681 518.193 173.245 518.336 173.877L533.642 183.294C533.783 183.38 533.892 183.509 533.954 183.662C534.016 183.815 534.027 183.984 533.985 184.144C533.944 184.304 533.853 184.446 533.724 184.55C533.596 184.654 533.438 184.714 533.273 184.722L517.944 185.398C516.508 190.508 513.441 195.009 509.21 198.216C504.979 201.423 499.816 203.161 494.505 203.166H494.514ZM474.568 191.198L474.741 191.477C477.477 195.728 481.506 198.988 486.235 200.778C490.964 202.567 496.144 202.791 501.01 201.416C504.92 200.314 508.474 198.21 511.319 195.312C514.164 192.414 516.202 188.823 517.231 184.895L517.312 184.599L533.021 183.903L517.589 174.4L517.552 174.221C517.413 173.539 517.273 172.938 517.111 172.382C515.389 166.403 511.364 161.352 505.919 158.337C500.474 155.322 494.055 154.59 488.07 156.302C476.9 159.505 469.688 170.582 471.29 182.067L471.315 182.248L460.408 195.572L474.568 191.198Z" fill="#337ACC"/>
<path d="M501.038 177.295C501.04 176.31 500.809 175.338 500.366 174.458C499.923 173.578 499.279 172.814 498.486 172.229C497.693 171.643 496.774 171.252 495.802 171.086C494.83 170.921 493.833 170.986 492.891 171.277C491.949 171.567 491.088 172.075 490.378 172.758C489.668 173.442 489.129 174.283 488.805 175.214C488.48 176.144 488.378 177.137 488.508 178.114C488.638 179.091 488.996 180.024 489.552 180.837C489.885 181.325 490.061 181.903 490.058 182.494V186.379H499.433V182.494C499.427 181.91 499.6 181.337 499.928 180.853C500.652 179.808 501.039 178.567 501.038 177.295Z" fill="white"/>
<path d="M499.852 186.798H489.639V182.494C489.643 181.988 489.491 181.492 489.205 181.074C488.515 180.066 488.113 178.888 488.044 177.668C487.975 176.448 488.24 175.232 488.811 174.152C489.383 173.072 490.239 172.168 491.287 171.538C492.334 170.909 493.534 170.577 494.757 170.579C495.98 170.581 497.179 170.917 498.224 171.551C499.27 172.184 500.122 173.091 500.69 174.173C501.258 175.255 501.519 176.472 501.445 177.692C501.371 178.911 500.966 180.088 500.272 181.094C499.993 181.506 499.847 181.994 499.852 182.491V186.798ZM490.478 185.96H499.013V182.494C499.004 181.826 499.199 181.171 499.573 180.616C500.25 179.641 500.612 178.482 500.61 177.295C500.611 176.376 500.397 175.469 499.983 174.647C499.569 173.826 498.968 173.113 498.228 172.567C497.488 172.02 496.629 171.655 495.722 171.501C494.815 171.346 493.884 171.407 493.005 171.679C492.126 171.95 491.323 172.424 490.66 173.062C489.998 173.7 489.495 174.485 489.192 175.354C488.889 176.222 488.794 177.149 488.915 178.061C489.037 178.973 489.371 179.843 489.89 180.602C490.27 181.16 490.472 181.819 490.469 182.494L490.478 185.96Z" fill="#337ACC"/>
<path d="M499.433 189.045H490.059V192.5H499.433V189.045Z" fill="white"/>
<path d="M499.852 192.92H489.639V188.626H499.852V192.92ZM490.478 192.081H499.013V189.465H490.478V192.081Z" fill="#337ACC"/>
<path d="M492.508 174.64C491.98 175.015 491.6 175.562 491.434 176.188C491.268 176.813 491.327 177.477 491.599 178.064" fill="white"/>
<path d="M491.211 178.223C490.388 176.2 491.549 174.766 492.279 174.291L492.737 174.992L492.508 174.64L492.74 174.992C492.676 175.031 491.224 176.029 491.988 177.907L491.211 178.223Z" fill="#337ACC"/>
<path d="M481.925 167.121L481.438 167.804L486.822 171.648L487.309 170.965L481.925 167.121Z" fill="#337ACC"/>
<path d="M507.164 166.764L501.779 170.608L502.267 171.291L507.651 167.447L507.164 166.764Z" fill="#337ACC"/>
<path d="M494.403 160.623L494.191 167.233L495.03 167.26L495.241 160.65L494.403 160.623Z" fill="#337ACC"/>
<path d="M329.606 187.137C326.655 187.133 323.746 187.831 321.118 189.173C318.491 190.515 316.221 192.463 314.497 194.856C312.772 197.249 311.642 200.018 311.2 202.933C310.758 205.849 311.017 208.828 311.956 211.624L303.846 221.465C303.818 221.499 303.803 221.541 303.803 221.585C303.802 221.629 303.816 221.672 303.842 221.707C303.868 221.742 303.905 221.767 303.947 221.779C303.989 221.791 304.034 221.789 304.075 221.772L314.982 217.217C316.93 219.697 319.477 221.642 322.383 222.868C325.29 224.095 328.461 224.562 331.598 224.227C334.735 223.892 337.736 222.766 340.318 220.953C342.899 219.141 344.978 216.702 346.357 213.866C347.737 211.03 348.372 207.891 348.204 204.742C348.035 201.593 347.068 198.539 345.394 195.866C343.72 193.194 341.394 190.99 338.633 189.463C335.873 187.936 332.769 187.136 329.614 187.137H329.606Z" fill="white"/>
<path d="M329.605 224.766C326.774 224.771 323.978 224.142 321.423 222.924C318.868 221.707 316.619 219.932 314.841 217.731L304.236 222.166C304.109 222.218 303.969 222.226 303.836 222.189C303.704 222.152 303.588 222.072 303.506 221.962C303.425 221.852 303.382 221.718 303.385 221.581C303.388 221.444 303.437 221.311 303.523 221.205L311.485 211.54C310.266 207.72 310.287 203.613 311.545 199.806C312.803 195.999 315.233 192.687 318.488 190.344C321.743 188 325.656 186.746 329.668 186.759C333.68 186.773 337.584 188.054 340.823 190.419C344.062 192.785 346.47 196.113 347.702 199.928C348.934 203.744 348.927 207.851 347.682 211.662C346.438 215.474 344.019 218.794 340.772 221.148C337.525 223.503 333.616 224.771 329.605 224.771V224.766ZM315.104 216.705L315.303 216.956C318.119 220.535 322.176 222.928 326.672 223.662C331.169 224.396 335.777 223.417 339.586 220.919C343.395 218.422 346.128 214.587 347.245 210.173C348.361 205.759 347.781 201.086 345.617 197.08C343.454 193.073 339.865 190.023 335.56 188.533C331.255 187.042 326.547 187.22 322.367 189.031C318.188 190.842 314.84 194.155 312.985 198.313C311.131 202.472 310.905 207.175 312.352 211.492L312.428 211.71L304.743 221.04L315.104 216.705Z" fill="#337ACC"/>
<path d="M323.715 206.97L329.029 212.42L335.601 196.628" fill="white"/>
<path d="M329.172 213.166L323.416 207.263L324.014 206.676L328.886 211.674L335.215 196.466L335.987 196.791L329.172 213.166Z" fill="#337ACC"/>
<path d="M705.88 222.58C705.879 227.563 704.403 232.434 701.638 236.58C698.872 240.727 694.941 243.962 690.34 245.88C685.738 247.798 680.671 248.313 675.778 247.359C670.884 246.405 666.382 244.025 662.839 240.52C659.296 237.014 656.87 232.539 655.867 227.658C654.863 222.777 655.327 217.709 657.2 213.091C659.073 208.473 662.271 204.512 666.392 201.707C670.513 198.902 675.372 197.378 680.357 197.327C680.274 200.075 680.19 203.303 680.122 206.52C676.966 206.616 673.909 207.639 671.331 209.462C668.753 211.284 666.77 213.825 665.629 216.767C664.488 219.71 664.239 222.923 664.914 226.005C665.589 229.088 667.157 231.904 669.424 234.101C671.69 236.298 674.554 237.779 677.658 238.359C680.761 238.939 683.967 238.592 686.875 237.363C689.783 236.133 692.264 234.074 694.008 231.443C695.752 228.813 696.682 225.727 696.682 222.572C696.684 220.87 696.411 219.18 695.873 217.566L704.655 214.818C705.473 217.324 705.887 219.944 705.88 222.58Z" fill="#2F74C4"/>
<path d="M704.655 214.827L695.874 217.574C694.823 214.358 692.781 211.556 690.039 209.57C687.298 207.585 683.998 206.517 680.612 206.52C680.453 206.52 680.282 206.52 680.123 206.52C680.19 203.303 680.274 200.075 680.358 197.327C680.442 197.327 680.529 197.327 680.612 197.327C685.957 197.328 691.163 199.023 695.483 202.167C699.803 205.311 703.015 209.743 704.655 214.827Z" fill="#337ACC"/>
<path d="M157.057 446.49C167.818 446.49 176.541 437.772 176.541 427.017C176.541 416.263 167.818 407.544 157.057 407.544C146.296 407.544 137.572 416.263 137.572 427.017C137.572 437.772 146.296 446.49 157.057 446.49Z" fill="#337ACC"/>
<path d="M155.404 439.737V436.778C153.314 436.685 151.284 436.124 150.09 435.439L151.024 431.788C152.611 432.665 154.39 433.137 156.203 433.161C157.982 433.161 159.199 432.476 159.199 431.229C159.199 430.042 158.2 429.293 155.893 428.516C152.554 427.398 150.274 425.832 150.274 422.808C150.274 420.066 152.21 417.914 155.549 417.26V414.297H158.606V417.042C160.698 417.134 162.102 417.573 163.131 418.071L162.225 421.592C160.826 420.907 159.291 420.545 157.733 420.533C155.706 420.533 155.048 421.405 155.048 422.28C155.048 423.308 156.142 423.957 158.793 424.96C162.507 426.271 164.003 427.984 164.003 430.791C164.003 433.597 162.046 435.936 158.452 436.56V439.737H155.404Z" fill="white"/>
<path d="M126.047 399.378C131.707 399.378 136.296 394.791 136.296 389.134C136.296 383.476 131.707 378.89 126.047 378.89C120.386 378.89 115.797 383.476 115.797 389.134C115.797 394.791 120.386 399.378 126.047 399.378Z" fill="#337ACC"/>
<path d="M125.178 395.825V394.268C124.205 394.243 123.25 394.002 122.381 393.564L122.873 391.644C123.708 392.104 124.644 392.352 125.597 392.365C126.534 392.365 127.174 392.005 127.174 391.351C127.174 390.697 126.649 390.333 125.435 389.922C123.679 389.333 122.479 388.525 122.479 386.92C122.479 385.478 123.497 384.346 125.253 384.002V382.443H126.861V383.888C127.683 383.899 128.494 384.083 129.241 384.427L128.766 386.28C128.03 385.919 127.222 385.728 126.402 385.721C125.337 385.721 124.99 386.18 124.99 386.638C124.99 387.18 125.566 387.524 126.962 388.05C128.919 388.737 129.703 389.64 129.703 391.124C129.703 392.608 128.668 393.83 126.78 394.157V395.834L125.178 395.825Z" fill="white"/>
<path d="M167.996 372.286C173.657 372.286 178.246 367.699 178.246 362.042C178.246 356.385 173.657 351.798 167.996 351.798C162.335 351.798 157.746 356.385 157.746 362.042C157.746 367.699 162.335 372.286 167.996 372.286Z" fill="#337ACC"/>
<path d="M167.127 368.733V367.177C166.154 367.15 165.199 366.908 164.33 366.469L164.822 364.552C165.657 365.013 166.593 365.261 167.546 365.273C168.48 365.273 169.121 364.913 169.121 364.256C169.121 363.599 168.595 363.238 167.381 362.828C165.625 362.238 164.428 361.43 164.428 359.829C164.428 358.384 165.446 357.252 167.199 356.908V355.348H168.81V356.793C169.633 356.807 170.443 356.992 171.19 357.335L170.712 359.188C169.977 358.826 169.169 358.634 168.349 358.629C167.283 358.629 166.951 359.088 166.951 359.549C166.951 360.088 167.51 360.435 168.908 360.947C170.866 361.637 171.649 362.537 171.649 364.021C171.649 365.505 170.614 366.727 168.726 367.056V368.733H167.127Z" fill="white"/>
<path d="M681.694 405.588C693.15 405.588 702.437 396.307 702.437 384.857C702.437 373.408 693.15 364.127 681.694 364.127C670.238 364.127 660.951 373.408 660.951 384.857C660.951 396.307 670.238 405.588 681.694 405.588Z" fill="#337ACC"/>
<path d="M679.936 398.399V395.247C677.698 395.149 675.55 394.551 674.289 393.821L675.285 389.936C676.974 390.868 678.867 391.369 680.797 391.395C682.69 391.395 683.988 390.666 683.988 389.338C683.988 388.077 682.922 387.278 680.467 386.451C676.912 385.254 674.488 383.594 674.488 380.377C674.488 377.454 676.546 375.165 680.101 374.469V371.313H683.356V374.251C685.593 374.348 687.075 374.81 688.172 375.343L687.21 379.094C686.345 378.731 684.816 377.976 682.427 377.976C680.265 377.976 679.569 378.907 679.569 379.838C679.569 380.931 680.733 381.629 683.554 382.691C687.509 384.089 689.103 385.908 689.103 388.899C689.103 391.89 687.008 394.375 683.191 395.048V398.433L679.936 398.399Z" fill="white"/>
<path d="M705.604 334.964C710.56 330.011 710.56 321.98 705.604 317.026C700.648 312.073 692.612 312.073 687.656 317.026C682.699 321.98 682.699 330.011 687.656 334.964C692.612 339.917 700.648 339.917 705.604 334.964Z" fill="#337ACC"/>
<path d="M695.554 334.282V332.353C694.352 332.32 693.172 332.022 692.098 331.481L692.707 329.106C693.742 329.675 694.902 329.981 696.083 329.997C697.241 329.997 698.041 329.55 698.041 328.74C698.041 327.929 697.392 327.479 695.887 326.97C693.711 326.241 692.229 325.223 692.229 323.256C692.229 321.467 693.488 320.067 695.663 319.639V317.71H697.655V319.499C698.673 319.514 699.677 319.742 700.602 320.167L700.012 322.462C699.101 322.016 698.101 321.78 697.087 321.772C695.764 321.772 695.339 322.331 695.339 322.909C695.339 323.58 696.049 324.005 697.778 324.656C700.194 325.495 701.17 326.613 701.17 328.454C701.17 330.296 699.889 331.808 697.554 332.211V334.282H695.554Z" fill="white"/>
<path d="M441.214 206.702C441.541 206.864 446.17 211.979 444.139 212.951C442.109 213.924 439.346 213.51 439.346 213.51L441.214 206.702Z" fill="#D28572"/>
<path d="M420.865 217.597L415.238 234.132L430.172 241.991L434.043 219.967L420.871 217.597H420.865Z" fill="#FFBC96"/>
<path d="M433.741 220.727L431.784 232.466C428.733 228.542 426.376 224.125 424.814 219.407L427.578 219.251L433.741 220.727Z" fill="#D28572"/>
<path d="M441.121 199.099C441.121 199.099 444.477 222.298 438.045 224.031C431.613 225.764 420.879 217.602 420.879 217.602L424.098 198.317L433.486 195.242L441.121 199.099Z" fill="#FFBC96"/>
<path d="M441.121 199.099C441.121 199.099 435.086 196.687 431.053 207.009L429.04 210.491L419.117 209.421L420.725 196.821L429.442 192.531C429.442 192.531 439.245 185.965 441.121 199.099Z" fill="#1C4E87"/>
<path d="M429.848 193.873C429.848 193.873 424.797 190.253 416.749 198.297C408.7 206.341 412.816 222.334 421.399 222.155C429.764 221.979 427.435 213.709 426.898 212.236C426.361 210.763 429.848 193.873 429.848 193.873Z" fill="#1C4E87"/>
<path d="M430.956 213.587C432.804 212.521 433.316 209.948 432.099 207.841C430.882 205.734 428.397 204.891 426.548 205.958C424.7 207.024 424.188 209.597 425.405 211.704C426.622 213.811 429.107 214.654 430.956 213.587Z" fill="#FFBC96"/>
<path d="M429.848 211.442C429.848 211.442 429.832 210.044 428.993 209.273C428.75 209.072 428.468 208.924 428.164 208.84C427.86 208.756 427.542 208.737 427.231 208.784L427.152 207.945C427.581 207.883 428.019 207.914 428.435 208.036C428.851 208.158 429.236 208.368 429.563 208.652C430.682 209.667 430.682 211.364 430.682 211.447L429.848 211.442Z" fill="#1C4E87"/>
<path opacity="0.4" d="M436.072 215.355C437.848 215.355 439.288 213.916 439.288 212.141C439.288 210.365 437.848 208.926 436.072 208.926C434.295 208.926 432.855 210.365 432.855 212.141C432.855 213.916 434.295 215.355 436.072 215.355Z" fill="#FE5B52"/>
<path d="M416.043 202.313C417.141 198.468 414.913 194.462 411.066 193.365C407.22 192.268 403.211 194.495 402.113 198.339C401.015 202.184 403.243 206.19 407.09 207.287C410.937 208.384 414.945 206.157 416.043 202.313Z" fill="#1C4E87"/>
<path d="M423.444 472.459C422.248 467.939 421.448 459.971 421.448 459.971L406.119 460.915L406.494 470.838C410.356 473.331 417.907 477.417 425.953 477.465C424.799 475.975 423.947 474.275 423.444 472.459Z" fill="#D28572"/>
<path d="M435.518 486.204C433.588 484.103 429.004 481.514 425.953 477.464C417.907 477.417 410.356 473.331 406.494 470.837L407.168 488.725H410.214L411.892 480.223C411.892 480.223 422.077 488.41 429.231 488.829C436.385 489.248 436.673 487.465 435.518 486.204Z" fill="#1C4E87"/>
<path d="M398.979 315.327C395.413 318.424 401.812 430.548 404.013 464.546L425.117 464.233L421.652 319.732L398.979 315.327Z" fill="#1C4E87"/>
<path d="M437.618 472.459C436.421 467.939 435.624 459.971 435.624 459.971L420.293 460.915L420.668 470.838C424.53 473.331 432.084 477.417 440.127 477.465C438.974 475.974 438.122 474.274 437.618 472.459Z" fill="#FFBC96"/>
<path d="M449.704 486.204C447.775 484.103 443.188 481.514 440.137 477.464C432.094 477.417 424.54 473.331 420.678 470.837L421.355 488.725H424.4L426.078 480.223C426.078 480.223 436.264 488.41 443.417 488.829C450.571 489.248 450.848 487.465 449.704 486.204Z" fill="#1C4E87"/>
<path d="M405.908 317.216L417.822 464.529L439.916 465.175C439.916 465.175 440.861 346.491 435.821 319.102L405.908 317.216Z" fill="#337ACC"/>
<path d="M438.037 388.972C437.986 388.975 437.936 388.975 437.885 388.972L435.687 388.79L435.754 387.952L437.955 388.136C438.084 388.15 438.214 388.138 438.337 388.1C438.461 388.061 438.575 387.998 438.674 387.915C438.772 387.831 438.852 387.728 438.909 387.612C438.966 387.496 438.998 387.369 439.005 387.24C439.011 387.111 438.991 386.982 438.945 386.861C438.9 386.741 438.83 386.63 438.741 386.537C438.651 386.444 438.543 386.37 438.424 386.32C438.305 386.27 438.177 386.245 438.048 386.247L430.961 386.135V385.296L438.05 385.408C438.512 385.429 438.947 385.628 439.265 385.963C439.583 386.298 439.759 386.743 439.755 387.205C439.752 387.667 439.57 388.109 439.248 388.439C438.925 388.77 438.487 388.963 438.025 388.977L438.037 388.972Z" fill="#1C4E87"/>
<path d="M416.725 230.118L418.193 223.558C418.193 223.558 425.285 226.865 429.796 230.33C430.738 231.052 431.515 231.966 432.077 233.011C432.639 234.055 432.973 235.207 433.057 236.39L433.471 242.29L420.886 238.827L416.725 230.118Z" fill="#FED3D1"/>
<path d="M495.998 303.048C488.883 302.699 483.659 300.192 479.618 296.34L479.408 285.532L497.889 287.002L503.032 291.829L495.998 303.048Z" fill="#D28572"/>
<path d="M452.004 300.004C452.004 300.004 459.879 298.221 460.612 283.111L453.682 288.567L452.004 300.004Z" fill="#1C4E87"/>
<path d="M416.724 230.118L428.171 236.038C430.239 237.105 432.049 238.612 433.472 240.453C434.896 242.293 435.898 244.423 436.41 246.693C439.64 261.078 445.471 294.792 439.615 331.487C439.615 331.487 415.992 330.752 393.311 317.216L402.193 250.094C402.963 244.271 405.923 238.959 410.471 235.239L416.724 230.118Z" fill="#FE5B52"/>
<path d="M453.9 282.795L474.595 283.712C476.703 283.796 478.763 284.357 480.622 285.353C483.568 286.962 486.333 288.883 488.869 291.083C489.608 291.725 490.101 292.604 490.266 293.568C490.43 294.533 490.256 295.525 489.773 296.376C489.515 296.833 489.174 297.237 488.769 297.57L486.252 299.635C486.037 299.811 485.806 299.966 485.561 300.096L481.953 302.019C481.409 302.314 480.806 302.482 480.189 302.511C478.376 302.592 476.568 302.273 474.893 301.577C473.218 300.881 471.716 299.825 470.495 298.484L444.033 295.493L448.444 285.576L453.9 282.795Z" fill="#FFBC96"/>
<path d="M497.889 286.994L485.404 282.882C484.801 282.685 484.157 282.648 483.536 282.776C480.563 283.388 471.812 285.417 473.317 287.779C474.436 289.512 483.186 286.784 483.186 286.784L497.889 286.994Z" fill="#D28572"/>
<path d="M467.805 299.423C467.621 299.299 467.463 299.139 467.341 298.953C467.22 298.768 467.136 298.56 467.095 298.342C467.054 298.124 467.057 297.9 467.104 297.683C467.15 297.466 467.239 297.26 467.366 297.078L469.27 294.283C469.394 294.099 469.554 293.942 469.739 293.821C469.925 293.699 470.132 293.616 470.35 293.575C470.568 293.534 470.792 293.537 471.009 293.583C471.226 293.629 471.431 293.718 471.614 293.844C471.797 293.968 471.955 294.127 472.077 294.313C472.198 294.498 472.282 294.705 472.323 294.923C472.365 295.141 472.362 295.365 472.316 295.581C472.27 295.798 472.182 296.004 472.056 296.186L470.151 298.981C470.027 299.165 469.867 299.323 469.682 299.445C469.496 299.567 469.288 299.651 469.07 299.692C468.852 299.733 468.628 299.73 468.41 299.684C468.193 299.638 467.987 299.549 467.805 299.423Z" fill="#D28572"/>
<path d="M470.207 300.823C470.023 300.699 469.866 300.539 469.744 300.354C469.622 300.168 469.538 299.96 469.497 299.742C469.457 299.524 469.459 299.3 469.506 299.083C469.552 298.866 469.641 298.661 469.768 298.478L472.31 294.761C472.434 294.577 472.594 294.42 472.779 294.298C472.964 294.176 473.172 294.093 473.39 294.051C473.608 294.01 473.832 294.013 474.049 294.059C474.265 294.105 474.471 294.193 474.654 294.319C474.838 294.443 474.996 294.603 475.118 294.788C475.24 294.974 475.324 295.181 475.365 295.399C475.406 295.618 475.403 295.842 475.357 296.059C475.311 296.276 475.222 296.482 475.096 296.664L472.553 300.382C472.429 300.566 472.27 300.723 472.084 300.845C471.899 300.967 471.691 301.051 471.472 301.092C471.254 301.133 471.03 301.131 470.813 301.085C470.596 301.038 470.39 300.95 470.207 300.823Z" fill="#D28572"/>
<path d="M473.122 302.165C472.938 302.041 472.78 301.882 472.659 301.696C472.537 301.511 472.453 301.304 472.412 301.086C472.371 300.868 472.373 300.644 472.419 300.428C472.465 300.211 472.554 300.005 472.68 299.823L474.584 297.028C474.708 296.844 474.868 296.686 475.053 296.564C475.239 296.442 475.447 296.358 475.665 296.317C475.883 296.276 476.108 296.279 476.325 296.325C476.542 296.371 476.748 296.46 476.931 296.586C477.115 296.71 477.273 296.87 477.395 297.055C477.517 297.24 477.601 297.448 477.642 297.666C477.683 297.885 477.68 298.109 477.634 298.326C477.588 298.543 477.499 298.749 477.373 298.931L475.465 301.726C475.341 301.91 475.181 302.067 474.996 302.188C474.811 302.31 474.603 302.393 474.385 302.434C474.167 302.475 473.943 302.472 473.726 302.426C473.51 302.38 473.304 302.291 473.122 302.165Z" fill="#D28572"/>
<path d="M478.778 298.976L478.677 298.907C478.03 298.465 477.148 298.631 476.706 299.278L475.346 301.267C474.904 301.913 475.07 302.795 475.717 303.236L475.819 303.306C476.465 303.747 477.348 303.581 477.789 302.935L479.149 300.946C479.591 300.299 479.425 299.418 478.778 298.976Z" fill="#D28572"/>
<path d="M426.804 242.081C426.804 242.081 434.154 237.888 436.033 278.388L460.602 283.111C456.567 288.069 453.632 293.827 451.994 300.004L431.072 297.768C428.152 297.459 425.408 296.224 423.241 294.244C420.659 291.885 419.072 288.632 418.803 285.146L416.07 249.65L426.804 242.081Z" fill="#FE5B52"/>
<path d="M452.328 300.463L430.081 298.193C426.754 297.853 423.66 296.328 421.366 293.895C419.071 291.463 417.729 288.287 417.585 284.948L416.467 259.024L417.306 258.988L418.424 284.911C418.56 288.05 419.821 291.035 421.978 293.321C424.135 295.606 427.043 297.039 430.17 297.357L451.682 299.554C453.78 290.812 458.271 285.126 459.793 283.382L435.669 278.746L431.39 249.937L432.229 249.814L436.424 278.044L461.479 282.86L460.92 283.419C460.861 283.477 454.848 289.568 452.424 300.11L452.328 300.463Z" fill="#1C4E87"/>
<path d="M420.168 305.005L419.98 305.822L433.778 308.99L433.966 308.173L420.168 305.005Z" fill="#1C4E87"/>
<path d="M488.964 297.385L486.349 292.709L483.768 291.418L484.019 290.92L486.752 292.284L489.45 297.111L488.964 297.385Z" fill="#D28572"/>
<path d="M483.505 294.566L483.025 294.853L486 299.826L486.48 299.539L483.505 294.566Z" fill="#D28572"/>
<path d="M480.078 296.452L479.598 296.739L482.572 301.712L483.052 301.425L480.078 296.452Z" fill="#D28572"/>
<path d="M533.904 461.189L533.691 477.14L516.053 488.681H549.442L550.703 459.09L533.904 461.189Z" fill="#1C4E87"/>
<path d="M534.024 476.702L533.369 477.608L538.874 481.581L539.529 480.675L534.024 476.702Z" fill="#FEFEFE"/>
<path d="M603.728 454.473L607.507 474.935L619.476 488.681H594.592L589.762 459.09L603.728 454.473Z" fill="#1C4E87"/>
<path d="M607.101 474.628L602.928 479.315L603.763 480.059L607.937 475.371L607.101 474.628Z" fill="#FEFEFE"/>
<path d="M536.843 310.919C536.843 310.919 526.552 352.475 529.704 463.917H553.643C553.643 463.917 559.944 370.732 568.762 307.771L536.843 310.919Z" fill="#337ACC"/>
<path d="M591.232 307.14L610.026 461.083L585.351 465.175L555.605 307.45L591.232 307.14Z" fill="#337ACC"/>
<path d="M568.616 378.329L561.954 340.233L554.037 338.793L554.188 337.969L562.679 339.512L562.729 339.799L569.441 378.186L568.616 378.329Z" fill="#1C4E87"/>
<path d="M531.247 402.304C530.872 402.303 530.512 402.163 530.234 401.912C529.957 401.661 529.783 401.315 529.745 400.943C529.709 400.564 529.816 400.185 530.046 399.882C530.276 399.578 530.612 399.373 530.987 399.305L537.889 398.083L538.034 398.922L531.132 400.143C530.961 400.174 530.808 400.269 530.706 400.41C530.604 400.551 530.561 400.725 530.585 400.898C530.609 401.07 530.699 401.226 530.836 401.333C530.973 401.44 531.147 401.489 531.32 401.471L534.284 401.166L534.371 402.005L531.404 402.312C531.351 402.312 531.299 402.31 531.247 402.304Z" fill="#1C4E87"/>
<path d="M574.321 400.669C573.945 400.665 573.583 400.522 573.307 400.266C573.031 400.011 572.86 399.662 572.828 399.287C572.795 398.913 572.904 398.54 573.132 398.241C573.36 397.941 573.691 397.738 574.061 397.67L580.963 396.451L581.111 397.29L574.206 398.511C574.038 398.539 573.887 398.63 573.783 398.766C573.679 398.901 573.63 399.071 573.647 399.241C573.656 399.329 573.682 399.414 573.724 399.492C573.765 399.57 573.822 399.639 573.891 399.695C573.96 399.75 574.039 399.792 574.123 399.817C574.208 399.843 574.297 399.851 574.385 399.842L577.35 399.534L577.436 400.373L574.469 400.677C574.42 400.677 574.37 400.674 574.321 400.669Z" fill="#1C4E87"/>
<path d="M560.518 227.155L539.154 281.957L536.844 310.919L582.832 314.066L576.134 227.597L560.518 227.155Z" fill="white"/>
<path opacity="0.2" d="M537.707 275.495C541.203 275.731 544.716 275.457 548.133 274.682C551.493 273.928 554.746 272.757 557.815 271.196C559.303 270.335 560.852 269.572 562.237 268.533C562.941 268.035 563.702 267.61 564.368 267.057C565.033 266.503 565.713 265.964 566.404 265.43C567.091 264.899 567.745 264.326 568.361 263.714L570.319 261.942C571.569 260.707 572.749 259.396 574.064 258.166C573.149 259.689 572.184 261.207 571.141 262.669L569.416 264.74C568.854 265.447 568.239 266.111 567.575 266.724C565.058 269.321 562.032 271.42 558.839 273.184C555.574 274.834 552.054 275.92 548.427 276.395C544.822 276.839 541.099 276.677 537.707 275.495Z" fill="#1C4E87"/>
<path d="M560.517 227.155C560.517 227.155 551.691 240.012 543.22 333.396C543.209 333.513 543.168 333.625 543.1 333.721C543.033 333.817 542.941 333.893 542.835 333.943C542.728 333.992 542.611 334.013 542.494 334.003C542.377 333.993 542.265 333.952 542.168 333.885L528.129 323.823L540.412 243.861L560.517 227.155Z" fill="#1C4E87"/>
<path d="M560.517 227.155L541.875 232.223C540.469 232.604 539.186 233.344 538.154 234.371C537.121 235.397 536.373 236.675 535.985 238.078L523.719 282.27L497.889 286.993L495.998 303.048L529.516 301.477C531.454 301.386 533.305 300.646 534.77 299.375C536.235 298.104 537.23 296.378 537.593 294.473L546.713 246.698L560.517 227.155Z" fill="#1C4E87"/>
<path d="M576.134 227.597C576.134 227.597 566.326 295.152 566.605 333.723L597.369 332.326L597.428 267.482L576.134 227.597Z" fill="#1C4E87"/>
<path d="M603.075 291.498L558.934 285.643C558.243 285.552 557.609 286.037 557.518 286.727L553.154 319.585C553.063 320.275 553.548 320.909 554.239 321L598.38 326.855C599.071 326.947 599.705 326.462 599.796 325.771L604.16 292.914C604.251 292.224 603.766 291.59 603.075 291.498Z" fill="#337ACC"/>
<path d="M581.111 308.862H581.052L575.381 308.11C575.269 308.092 575.168 308.03 575.101 307.939C575.065 307.894 575.039 307.841 575.024 307.785C575.009 307.729 575.006 307.67 575.014 307.612L575.574 303.392C575.593 303.28 575.654 303.18 575.744 303.112C575.838 303.043 575.955 303.012 576.071 303.026L581.74 303.778C581.857 303.794 581.962 303.855 582.034 303.948C582.07 303.994 582.096 304.047 582.111 304.103C582.126 304.159 582.129 304.218 582.121 304.275L581.561 308.496C581.547 308.602 581.495 308.699 581.414 308.77C581.333 308.84 581.229 308.879 581.122 308.879L581.111 308.862ZM575.574 307.568L581.01 308.289L581.539 304.3L576.102 303.579L575.574 307.568Z" fill="white"/>
<path d="M585.78 304.398L584.427 306.329C583.515 307.64 582.208 308.625 580.696 309.141C577.636 310.175 571.361 312.132 572.2 314.066C572.681 315.184 578.523 313.663 578.523 313.663C578.523 313.663 571.772 321.621 574.593 324.038C575.379 324.712 576.716 325.265 578.26 325.623C580.04 326.005 581.876 326.048 583.671 325.749C585.082 325.528 586.369 324.818 587.307 323.742C588.488 322.396 589.54 320.942 590.448 319.399C593.32 314.466 594.939 310.594 595.658 308.023L585.78 304.398Z" fill="#D28572"/>
<path d="M576.133 227.597L589.99 230.672C591.859 231.085 593.597 231.952 595.052 233.195C596.506 234.438 597.632 236.021 598.33 237.802L612.227 269.807C613.269 272.21 613.732 274.824 613.577 277.438C613.422 280.052 612.654 282.593 611.334 284.856L595.642 311.766L583.463 305.259L595.01 276.297L576.133 227.597Z" fill="#1C4E87"/>
<path d="M567.302 237.449C563.021 237.449 559.86 234.956 559.818 234.934L560.344 234.28C560.4 234.325 565.991 238.718 572.185 235.359L572.585 236.094C570.967 236.984 569.149 237.45 567.302 237.449Z" fill="#1C4E87"/>
<path d="M538.755 246.724L527.703 323.755L528.534 323.874L539.586 246.843L538.755 246.724Z" fill="#337ACC"/>
<path d="M583.847 305.415L583.078 305.088L596.167 274.469L586.356 251.153L587.128 250.829L597.078 274.469L583.847 305.415Z" fill="#337ACC"/>
<path d="M578.134 319.524L574.965 324.181L575.427 324.495L578.596 319.838L578.134 319.524Z" fill="#925D4F"/>
<path d="M581.114 320.923L577.945 325.58L578.408 325.894L581.577 321.237L581.114 320.923Z" fill="#925D4F"/>
<path d="M585.489 320.996L582.318 325.655L582.781 325.97L585.952 321.31L585.489 320.996Z" fill="#925D4F"/>
<path d="M556.149 201.028C556.149 201.028 549.274 206.917 551.433 208.879C553.592 210.841 556.54 211.235 556.54 211.235L556.149 201.028Z" fill="#925D4F"/>
<path d="M576.572 207.87L576.136 227.602C568.328 235.708 560.52 227.155 560.52 227.155L561.079 223.108L561.325 221.308L562.444 213.247L562.723 211.112L570.867 209.211L576.572 207.87Z" fill="#D28572"/>
<path d="M571.64 212.286C571.64 212.286 569.067 217.373 561.08 223.108L561.326 221.308L562.445 213.247L570.812 211.447L571.64 212.286Z" fill="#925D4F"/>
<path d="M555.754 194.157C555.754 194.157 551.238 218.496 557.326 218.105C563.414 217.714 574.808 211.431 574.808 211.431L576.181 199.848L571.08 192.195L562.243 192.391L555.754 194.157Z" fill="#D28572"/>
<path d="M569.723 205.991C569.723 205.991 574.88 214.899 577.459 214.606C580.037 214.312 584.677 197.836 579.006 190.977C573.334 184.118 560.444 188.031 559.412 188.031C558.38 188.031 552.636 187.883 548.734 187.81C548.734 187.81 551.9 199.515 564.863 195.98C564.863 195.98 566.409 201.648 569.502 202.386L569.723 205.991Z" fill="#1C4E87"/>
<path d="M573.184 204.943C572.381 207.291 570.18 208.663 568.267 208.018C566.354 207.372 565.454 204.943 566.256 202.587C567.059 200.231 569.26 198.867 571.173 199.513C573.086 200.158 573.986 202.595 573.184 204.943Z" fill="#D28572"/>
<path opacity="0.3" d="M560.522 210.254C562.337 210.254 563.808 208.783 563.808 206.97C563.808 205.156 562.337 203.686 560.522 203.686C558.708 203.686 557.236 205.156 557.236 206.97C557.236 208.783 558.708 210.254 560.522 210.254Z" fill="#BE443D"/>
<path d="M568.086 206.232C568.086 206.17 567.725 204.706 568.536 203.482C569.053 202.699 569.912 202.204 571.084 202.014L571.218 202.853C570.287 203.004 569.621 203.375 569.235 203.957C568.869 204.586 568.75 205.33 568.902 206.042L568.086 206.232Z" fill="#1C4E87"/>
<path d="M294.085 381.121L272.979 373.041C275.311 385.47 276.564 457.908 276.737 468.66L291.397 471.433C293.875 437.264 294.085 381.121 294.085 381.121Z" fill="#FFBC96"/>
<path d="M306.267 487.319C299.754 479.446 296.918 481.967 291.355 471.667C291.355 471.589 291.383 471.5 291.397 471.419L276.737 468.646C276.751 469.515 276.759 469.988 276.759 469.988L276.34 488.876H280.328L282.638 480.377L292.194 488.876H305.246C306.057 488.89 306.796 487.943 306.267 487.319Z" fill="#FE5B52"/>
<path d="M269.717 380.598L249.998 369.563C250.512 382.197 241.3 454.059 239.93 464.725L254.039 469.58C261.408 436.124 269.717 380.598 269.717 380.598Z" fill="#FFBC96"/>
<path d="M266.451 487.448C261.138 478.719 257.975 480.804 253.95 469.839C253.978 469.764 254.003 469.677 254.031 469.599L239.922 464.744C239.813 465.605 239.751 466.075 239.751 466.075L236.6 484.686L240.549 485.262L244.058 477.182L253.122 488.681L265.207 488.851C266.018 488.968 266.871 488.135 266.451 487.448Z" fill="#FE5B52"/>
<path d="M247.147 314.066C247.147 314.066 242.737 353.417 249.038 382.381C249.038 382.381 272.664 389.928 294.084 381.121C294.084 381.121 295.971 319.103 287.467 309.658L247.147 314.066Z" fill="#1C4E87"/>
<path d="M270.998 375.782C263.583 375.755 256.18 375.195 248.846 374.105L248.98 373.267C249.26 373.314 277.87 377.926 294.347 371.612L294.65 372.395C287.851 375.008 279.055 375.782 270.998 375.782Z" fill="#337ACC"/>
<path d="M271.701 331.543C271.443 329.623 269.184 312.764 269.184 311.922H270.023C270.023 312.518 271.524 323.916 272.54 331.431L271.701 331.543Z" fill="#337ACC"/>
<path d="M290.016 397.17C289.924 397.17 287.779 397.15 286.503 395.563C286.386 395.434 286.309 395.272 286.284 395.099C286.259 394.926 286.287 394.75 286.364 394.593C286.599 394.123 287.27 393.67 290.559 393.545C292.267 393.48 293.884 393.545 293.951 393.545L293.912 394.663C291.361 394.576 288.397 394.71 287.527 395.043C288.492 396.049 289.999 396.06 290.016 396.06V397.17Z" fill="#D28572"/>
<path d="M263.166 399.406C263.074 399.406 260.929 399.386 259.654 397.799C259.536 397.669 259.46 397.508 259.435 397.335C259.41 397.162 259.437 396.986 259.514 396.829C259.749 396.359 260.42 395.906 263.709 395.781C265.415 395.716 267.034 395.781 267.101 395.781L267.062 396.899C264.512 396.812 261.547 396.946 260.677 397.279C261.642 398.285 263.15 398.296 263.166 398.296V399.406Z" fill="#D28572"/>
<path d="M280.787 241.955L287.547 249.845C290.684 253.505 292.261 258.249 291.94 263.057L289.885 293.92C289.885 293.92 290.514 309.868 292.614 312.389C294.714 314.91 288.623 317.216 280.029 318.683C271.435 320.151 244.749 319.944 243.488 315.956C242.227 311.967 248.737 309.247 246.64 299.376L250.835 254.043L256.4 244.39L270.999 243.758L280.787 241.955Z" fill="#337ACC"/>
<path d="M276.592 305.214L286.66 267.901L316.763 269.519L305.739 306.511L276.592 305.214Z" fill="#337ACC"/>
<path d="M267.836 288.251C267.836 288.251 282.588 284.475 286.682 285.261C290.777 286.046 292.511 288.894 291.716 289.669C290.922 290.443 289.199 290.297 289.199 290.297C289.199 290.297 288.411 297.696 285.578 298.797C282.745 299.898 261.742 303.574 261.742 303.574L259.432 297.539L267.836 288.251Z" fill="#FFBC96"/>
<path d="M267.837 288.251L261.738 303.576L242.183 303.727H242.122C240.327 303.732 238.557 303.313 236.955 302.505C235.352 301.697 233.963 300.523 232.901 299.078C231.838 297.632 231.132 295.957 230.839 294.187C230.546 292.418 230.675 290.604 231.215 288.894L242.681 252.439C242.731 252.263 242.796 252.087 242.857 251.911C243.35 250.65 244.126 249.519 245.126 248.607C246.126 247.694 247.323 247.024 248.624 246.648L256.388 244.392L256.298 244.971L249.771 287.407L267.837 288.251Z" fill="#337ACC"/>
<path d="M271.487 255.883C271.114 255.883 270.749 255.772 270.439 255.565C270.128 255.357 269.886 255.063 269.743 254.718C269.6 254.373 269.563 253.994 269.636 253.628C269.709 253.262 269.889 252.926 270.153 252.662C270.417 252.398 270.753 252.218 271.119 252.146C271.485 252.073 271.865 252.11 272.21 252.253C272.555 252.396 272.85 252.638 273.057 252.948C273.264 253.258 273.375 253.623 273.375 253.996C273.374 254.496 273.175 254.976 272.821 255.329C272.468 255.683 271.988 255.882 271.487 255.883ZM271.487 252.948C271.28 252.948 271.077 253.009 270.905 253.125C270.732 253.24 270.598 253.403 270.518 253.595C270.439 253.786 270.418 253.997 270.459 254.2C270.499 254.404 270.599 254.591 270.746 254.737C270.892 254.884 271.079 254.984 271.283 255.024C271.486 255.064 271.697 255.044 271.889 254.964C272.08 254.885 272.244 254.751 272.359 254.578C272.475 254.406 272.536 254.203 272.536 253.996C272.536 253.718 272.426 253.451 272.229 253.255C272.032 253.058 271.766 252.948 271.487 252.948Z" fill="#337ACC"/>
<path d="M262.023 303.998L246.666 303.956V303.118L261.455 303.157L267.23 288.642L249.245 287.804L254.368 266.126L255.185 266.322L250.293 287.013L268.444 287.86L262.023 303.998Z" fill="#337ACC"/>
<path d="M297.567 266.596L296.82 270.816L306.061 271.361L306.656 267.241L297.567 266.596Z" fill="#1C4E87"/>
<path d="M289.082 290.551L286.612 289.383L283.052 289.746L282.996 289.19L286.707 288.81L289.322 290.045L289.082 290.551Z" fill="#D28572"/>
<path d="M285.82 291.782L285.539 292.266L288.429 293.943L288.71 293.459L285.82 291.782Z" fill="#D28572"/>
<path d="M284.573 294.65L284.277 295.125L287.354 297.035L287.649 296.56L284.573 294.65Z" fill="#D28572"/>
<path d="M308.678 296.438C308.678 296.438 303.89 286.175 305.322 285.104C306.161 284.475 307.106 285.314 307.106 285.314C307.106 285.314 305.741 282.167 306.793 281.641C307.845 281.116 308.577 282.27 308.577 282.27C308.577 282.27 308.681 279.858 309.523 279.858C310.364 279.858 311.307 281.325 311.307 281.325C311.307 281.325 311.201 279.648 312.356 279.542C313.511 279.436 316.137 284.894 316.662 289.604C317.149 293.998 316.976 301.673 307.526 300.728L308.678 296.438Z" fill="#FFBC96"/>
<path d="M307.361 285.226L306.838 285.423L308.581 290.044L309.104 289.847L307.361 285.226Z" fill="#D28572"/>
<path d="M308.862 282.164L308.342 282.369L310.644 288.201L311.164 287.996L308.862 282.164Z" fill="#D28572"/>
<path d="M309.552 280.603L309.037 280.815L311.418 286.575L311.932 286.363L309.552 280.603Z" fill="#D28572"/>
<path d="M277.523 243.165L261.582 243.724L263.819 219.813L273.734 225.956L276.483 227.656L277.162 237.153L277.523 243.165Z" fill="#FFBC96"/>
<path d="M277.151 237.153C269.818 235.756 265.824 227.091 265.824 227.091L273.725 225.973L276.471 227.675L277.151 237.153Z" fill="#D28572"/>
<path d="M283.343 207.534C283.343 207.534 288.391 231.381 279.212 231.532C270.034 231.683 261.012 226.183 261.012 226.183L261.241 213.342L266.834 207.993L275.859 205.086L283.343 207.534Z" fill="#FFBC96"/>
<path d="M284.982 208.664C284.685 209.547 284.066 210.285 283.248 210.732C280.921 211.816 278.136 209.334 275.719 210.206C273.303 211.078 273.113 214.488 271.189 216.165C269.377 217.73 266.613 217.328 264.287 216.747L265.942 220.101C264.253 222.035 263.515 224.953 263.727 228.855C264.14 231.867 263.715 234.934 262.497 237.72C259.72 243.911 256.548 244.562 256.548 244.562L248.625 246.642C247.326 247.02 246.131 247.692 245.132 248.605C244.133 249.518 243.357 250.648 242.864 251.908C242.034 250.818 241.339 249.632 240.795 248.375C239.956 246.239 239.821 243.702 241.018 241.734C241.768 240.493 243.021 239.543 243.614 238.212C244.777 235.563 243.077 232.13 244.71 229.727C245.605 228.396 247.227 227.848 248.704 227.211C250.18 226.574 251.713 225.601 252.015 224.047C252.294 222.56 251.355 221.152 250.538 219.888C249.722 218.625 248.938 217.049 249.543 215.673C250.449 213.616 253.458 213.75 255.203 212.319C256.825 210.955 256.937 208.563 257.384 206.495C258.145 202.895 260.539 199.474 264.04 198.367C267.978 197.137 272.207 198.993 275.574 201.352C275.899 201.609 276.266 201.81 276.659 201.944C277.431 202.157 278.236 201.833 279.031 201.665C279.947 201.487 280.895 201.556 281.776 201.865C282.657 202.174 283.44 202.711 284.045 203.423C284.65 204.134 285.054 204.993 285.217 205.912C285.379 206.831 285.294 207.777 284.971 208.652L284.982 208.664Z" fill="#1C4E87"/>
<path d="M268.17 222.579C270.104 221.337 270.534 218.562 269.131 216.381C267.728 214.2 265.023 213.439 263.09 214.681C261.157 215.923 260.727 218.698 262.13 220.879C263.533 223.06 266.237 223.821 268.17 222.579Z" fill="#FFBC96"/>
<path d="M266.592 221.696C266.592 221.68 266.517 220.156 265.552 219.307C265.275 219.08 264.954 218.913 264.609 218.817C264.265 218.721 263.904 218.697 263.55 218.748L263.482 217.909C263.95 217.848 264.426 217.886 264.879 218.019C265.331 218.152 265.751 218.379 266.111 218.683C267.345 219.776 267.429 221.587 267.431 221.666L266.592 221.696Z" fill="#1C4E87"/>
<path opacity="0.4" d="M271.65 223.623C272.795 223.623 273.723 222.695 273.723 221.552C273.723 220.408 272.795 219.48 271.65 219.48C270.506 219.48 269.578 220.408 269.578 221.552C269.578 222.695 270.506 223.623 271.65 223.623Z" fill="#FE5B52"/>
<path d="M279.878 217.96C280.403 218.34 280.893 218.768 281.34 219.237C281.809 219.711 282.216 220.24 282.554 220.814C282.642 220.972 282.715 221.137 282.772 221.308C282.847 221.513 282.874 221.732 282.851 221.948C282.831 222.089 282.775 222.222 282.688 222.334C282.607 222.445 282.498 222.532 282.372 222.588C282.272 222.635 282.166 222.667 282.056 222.684L281.802 222.717C281.15 222.774 280.493 222.758 279.844 222.67V222.368C280.471 222.261 281.108 222.183 281.701 222.06L281.916 222.007C281.964 221.995 282.01 221.977 282.054 221.954C282.115 221.906 282.101 221.912 282.112 221.851C282.111 221.749 282.091 221.649 282.054 221.554C282.004 221.426 281.945 221.3 281.877 221.18C281.567 220.654 281.221 220.15 280.84 219.673L279.668 218.178L279.878 217.96Z" fill="#D28572"/>
<path d="M276.591 218.725C276.986 218.725 277.307 218.405 277.307 218.01C277.307 217.615 276.986 217.294 276.591 217.294C276.196 217.294 275.875 217.615 275.875 218.01C275.875 218.405 276.196 218.725 276.591 218.725Z" fill="#1C4E87"/>
<path d="M283.216 218.323C283.611 218.323 283.932 218.003 283.932 217.608C283.932 217.212 283.611 216.892 283.216 216.892C282.821 216.892 282.5 217.212 282.5 217.608C282.5 218.003 282.821 218.323 283.216 218.323Z" fill="#1C4E87"/>
<path d="M276.773 216.126L274.536 216.487C274.372 216.514 274.204 216.474 274.069 216.377C273.935 216.28 273.844 216.134 273.817 215.97C273.804 215.889 273.806 215.806 273.825 215.726C273.844 215.646 273.878 215.571 273.926 215.504C273.974 215.438 274.035 215.381 274.105 215.338C274.175 215.295 274.253 215.267 274.334 215.254L276.572 214.891C276.736 214.865 276.903 214.905 277.038 215.002C277.172 215.099 277.263 215.245 277.291 215.408C277.316 215.572 277.277 215.739 277.18 215.874C277.083 216.008 276.937 216.099 276.773 216.126Z" fill="#1C4E87"/>
<path d="M283.927 215.861H282.146C281.98 215.861 281.82 215.795 281.703 215.677C281.586 215.56 281.52 215.401 281.52 215.235C281.52 215.069 281.587 214.911 281.704 214.794C281.821 214.677 281.98 214.611 282.146 214.611H283.927C284.093 214.611 284.251 214.677 284.368 214.794C284.485 214.911 284.551 215.069 284.551 215.235C284.551 215.317 284.536 215.398 284.504 215.474C284.473 215.55 284.427 215.619 284.369 215.677C284.311 215.735 284.243 215.781 284.167 215.813C284.091 215.844 284.01 215.861 283.927 215.861Z" fill="#1C4E87"/>
<path d="M275.514 223.458C275.871 223.863 276.274 224.225 276.716 224.536C277.151 224.841 277.63 225.075 278.137 225.232C278.64 225.392 279.166 225.468 279.695 225.459C279.963 225.458 280.231 225.44 280.497 225.406C280.777 225.375 281.029 225.302 281.308 225.269L281.381 225.473C281.12 225.594 280.852 225.699 280.578 225.786C280.298 225.868 280.011 225.922 279.72 225.948C279.129 226.01 278.531 225.947 277.966 225.763C276.837 225.399 275.892 224.614 275.326 223.572L275.514 223.458Z" fill="#1C4E87"/>
<path d="M270.997 243.757L265.852 250.89L256.734 244.63L256.902 244.495C259.316 242.763 261.236 240.432 262.473 237.731L270.997 243.757Z" fill="#337ACC"/>
<path d="M270.984 243.758L277.179 250.684L283.024 244.47L277.179 237.147L270.984 243.758Z" fill="#337ACC"/>
<path d="M265.94 251.472L256.148 244.739L256.624 244.046L265.738 250.318L270.395 243.861L262.044 238.106L262.519 237.416L271.575 243.657L265.94 251.472Z" fill="#337ACC"/>
<path d="M277.17 251.304L270.416 243.752L276.871 236.862L277.486 237.435L271.551 243.766L277.187 250.063L282.623 244.275L283.236 244.85L277.17 251.304Z" fill="#337ACC"/>
<path d="M730.064 488.379H91.0371V489.497H730.064V488.379Z" fill="#1C4E87"/>
</svg>
